<svg width="81" height="81" viewBox="0 0 81 81" fill="none" xmlns="http://www.w3.org/2000/svg">
<path d="M30.1 3.19995C22.3319 3.19995 16 9.53184 16 17.3C16 22.4567 18.8639 26.8566 22.9972 29.3C18.8639 31.7434 16 36.1432 16 41.3C16 46.4567 18.8639 50.8566 22.9972 53.3C18.8639 55.7434 16 60.1432 16 65.3C16 73.0681 22.3319 79.4 30.1 79.4C37.8681 79.4 44.2 73.0681 44.2 65.3V53.3V49.7237C46.5841 53.1128 50.4333 55.4 54.9 55.4C62.2264 55.4 68.2 49.4264 68.2 42.1C68.2 36.5448 64.7077 31.9522 59.872 29.9893C64.7432 27.7882 68.2 23.0006 68.2 17.3C68.2 9.53184 61.8681 3.19995 54.1 3.19995H42.1H30.1ZM30.1 7.39995H40V27.2H30.1C24.6137 27.2 20.2 22.7862 20.2 17.3C20.2 11.8137 24.6137 7.39995 30.1 7.39995ZM44.2 7.39995H54.1C59.5863 7.39995 64 11.8137 64 17.3C64 22.7862 59.5863 27.2 54.1 27.2H44.2V7.39995ZM30.1 31.4H40V51.2H30.1C24.6137 51.2 20.2 46.7862 20.2 41.3C20.2 35.8137 24.6137 31.4 30.1 31.4ZM44.2 31.4H47.286C46.091 32.2515 45.0515 33.2909 44.2 34.486V31.4ZM54.9 33C59.9447 33 64 37.0552 64 42.1C64 47.1447 59.9447 51.2 54.9 51.2C49.8553 51.2 45.8 47.1447 45.8 42.1C45.8 37.0552 49.8553 33 54.9 33ZM30.1 55.4H40V65.3C40 70.7862 35.5863 75.2 30.1 75.2C24.6137 75.2 20.2 70.7862 20.2 65.3C20.2 59.8137 24.6137 55.4 30.1 55.4Z" fill="#022026" stroke="#022026"/>
</svg>
