<svg width="76" height="69" viewBox="0 0 76 69" fill="none" xmlns="http://www.w3.org/2000/svg">
<path d="M44.6169 34.4091C44.6169 38.1032 41.6582 41.0909 38 41.0909C34.3418 41.0909 31.3831 38.1032 31.3831 34.4091C31.3831 30.715 34.3418 27.7273 38 27.7273C41.6582 27.7273 44.6169 30.715 44.6169 34.4091Z" fill="#022026"/>
<path d="M74.8658 34.4091C74.8658 29.0713 69.3605 24.4207 60.7018 21.4521C61.7907 16.3529 61.9401 11.8016 61.0156 8.31564C60.2443 5.41 58.7829 3.31955 56.6749 2.10536C55.4063 1.37609 53.9563 1.00382 52.3663 1.00382C48.1939 1.00382 43.1158 3.67845 38.0038 8.24118C32.8879 3.67655 27.808 1 23.6318 1C22.0399 1 20.5918 1.37036 19.3232 2.10155C17.2152 3.31764 15.7519 5.41 14.9825 8.31755C14.058 11.8035 14.2073 16.3548 15.2944 21.4521C6.63945 24.4207 1.13416 29.0732 1.13416 34.4091C1.13416 39.745 6.63945 44.3975 15.2963 47.3642C14.2073 52.4615 14.058 57.0127 14.9844 60.4987C15.7538 63.4082 17.2171 65.4986 19.327 66.7166C20.5955 67.4459 22.0456 67.8182 23.6355 67.8182H23.6374C27.8118 67.8182 32.8898 65.1435 38.0019 60.577C43.1139 65.1378 48.192 67.8105 52.3644 67.8125H52.3663C53.9582 67.8125 55.4063 67.4421 56.6768 66.7109C58.7829 65.4967 60.2443 63.4063 61.0137 60.5006C61.9382 57.0146 61.7888 52.4634 60.7018 47.3661C69.3586 44.3994 74.8658 39.7469 74.8658 34.4091ZM54.8032 5.42336C56.0019 6.11445 56.8639 7.42027 57.3631 9.30455C58.1212 12.1605 57.9718 16.0035 57.0643 20.3582C54.047 19.5621 50.7442 18.9569 47.2183 18.5675C45.1198 15.7 42.9287 13.117 40.7148 10.8528C45.2465 6.86855 49.4076 4.82391 52.3663 4.82391C53.2927 4.82391 54.1113 5.02627 54.8032 5.42336ZM48.935 40.6843C47.7004 42.8167 46.4319 44.7926 45.1482 46.6387C42.8701 46.8392 40.4842 46.948 37.9981 46.948C35.5101 46.948 33.1242 46.8373 30.8442 46.6387C29.5605 44.7926 28.292 42.8167 27.0575 40.6843C25.8551 38.6034 24.7661 36.5015 23.7849 34.4091C24.7661 32.3186 25.8551 30.2148 27.0593 28.1339C28.2939 26.0015 29.5643 24.0255 30.848 22.1775C33.1261 21.9771 35.5139 21.8683 38 21.8683C40.4861 21.8683 42.8719 21.9771 45.1482 22.1775C46.4319 24.0255 47.7004 25.9995 48.935 28.132C50.1392 30.2129 51.2301 32.3167 52.2113 34.4072C51.2301 36.5015 50.1392 38.6034 48.935 40.6843ZM54.1794 38.9756C54.9545 40.9535 55.6086 42.8931 56.1474 44.7697C54.2758 45.2623 52.2586 45.6823 50.109 46.0202C50.8217 44.9091 51.5231 43.7789 52.1999 42.6086C52.8994 41.4021 53.5517 40.1898 54.1794 38.9756ZM38 55.3766C36.6218 53.9677 35.2265 52.4061 33.8313 50.6612C35.2001 50.7261 36.5858 50.7662 38 50.7662C39.4122 50.7662 40.798 50.7261 42.1649 50.6612C40.7715 52.4061 39.3782 53.9696 38 55.3766ZM25.8872 46.0202C23.7395 45.6823 21.7223 45.2623 19.8507 44.7697C20.3895 42.8931 21.0417 40.9554 21.8168 38.9775C22.4445 40.1898 23.0967 41.404 23.7944 42.6105C24.4712 43.7789 25.1745 44.9091 25.8872 46.0202ZM21.8168 29.8406C21.0417 27.8628 20.3895 25.9251 19.8507 24.0485C21.7223 23.5559 23.7395 23.1359 25.8891 22.798C25.1763 23.9091 24.4731 25.0393 23.7962 26.2076C23.0967 27.4161 22.4445 28.6284 21.8168 29.8406ZM38.0019 13.4435C39.3801 14.8505 40.7734 16.4121 42.1649 18.157C40.798 18.0921 39.4122 18.052 38 18.052C36.5877 18.052 35.202 18.0921 33.8351 18.157C35.2284 16.4121 36.6237 14.8505 38.0019 13.4435ZM52.1999 26.2076C51.5231 25.0374 50.8217 23.9072 50.109 22.7961C52.2586 23.134 54.2758 23.554 56.1474 24.0465C55.6086 25.9251 54.9545 27.8628 54.1794 29.8425C53.5517 28.6303 52.8994 27.4161 52.1999 26.2076ZM18.635 9.30645C19.136 7.41836 19.9981 6.11064 21.1967 5.41764C21.8887 5.02055 22.7073 4.81818 23.6318 4.81818C26.5943 4.81818 30.7554 6.86473 35.2889 10.8528C33.0732 13.1189 30.8802 15.7 28.7797 18.5694C25.2539 18.9588 21.9511 19.5659 18.9337 20.362C18.0263 16.0035 17.8769 12.1605 18.635 9.30645ZM4.91527 34.4091C4.91527 31.1083 9.13309 27.6013 16.2265 25.1366C17.081 28.1244 18.221 31.2438 19.6238 34.4091C18.221 37.5744 17.081 40.6938 16.2265 43.6815C9.13309 41.2169 4.91527 37.7099 4.91527 34.4091ZM23.6337 64C22.7073 64 21.8868 63.7976 21.1986 63.4025C19.9962 62.7095 19.1341 61.4017 18.635 59.5136C17.8769 56.6576 18.0263 52.8146 18.9337 48.46C21.9511 49.2561 25.252 49.8613 28.7779 50.2507C30.8783 53.1201 33.0713 55.7031 35.2889 57.9692C30.7554 61.9554 26.5943 64 23.6337 64ZM57.3612 59.5136C56.8602 61.3979 56 62.7037 54.8013 63.3948C54.1113 63.7919 53.2908 63.9943 52.3644 63.9943C49.4038 63.9943 45.2427 61.9496 40.711 57.9673C42.9268 55.7012 45.1179 53.1182 47.2164 50.2507C50.7423 49.8613 54.0432 49.2542 57.0606 48.46C57.9699 52.8146 58.1193 56.6576 57.3612 59.5136ZM59.7697 43.6835C58.9152 40.6957 57.7752 37.5763 56.3724 34.4091C57.7752 31.2419 58.9152 28.1225 59.7697 25.1347C66.865 27.5994 71.0847 31.1083 71.0847 34.4091C71.0847 37.7099 66.865 41.2188 59.7697 43.6835Z" fill="#022026"/>
<path d="M23.6355 68.7728C21.8773 68.7728 20.2703 68.3604 18.8562 67.5471C16.5176 66.1955 14.9068 63.9084 14.0693 60.745C13.177 57.3812 13.2261 52.9865 14.2016 47.9885C5.282 44.7564 0.188843 39.8348 0.188843 34.4091C0.188843 28.9835 5.282 24.0619 14.2016 20.8279C13.2242 15.8318 13.177 11.4351 14.0693 8.07133C14.9068 4.90987 16.5176 2.62278 18.8543 1.27305C23.6185 -1.47222 30.5341 0.52278 38.0018 6.97742C45.4676 0.528507 52.3776 -1.46458 57.1437 1.27687C59.4786 2.62278 61.0893 4.90796 61.9287 8.06942C62.8211 11.4351 62.7719 15.8318 61.7945 20.8279C70.716 24.06 75.8111 28.9835 75.8111 34.4091C75.8111 39.8348 70.716 44.7583 61.7945 47.9923C62.7738 52.9884 62.8192 57.3831 61.9268 60.7489C61.0893 63.9103 59.4804 66.1955 57.1456 67.5414C52.3757 70.2867 45.4601 68.2879 38 61.8428C32.7518 66.3807 27.7985 68.7728 23.6355 68.7728ZM23.6317 1.9546C22.2081 1.9546 20.915 2.28296 19.792 2.93014C17.909 4.01833 16.5989 5.91405 15.8975 8.56387C15.0316 11.8227 15.145 16.2098 16.2208 21.2517L16.3985 22.0841L15.6007 22.359C7.00619 25.3028 2.0794 29.6956 2.0794 34.4091C2.0794 39.1227 7.00619 43.5155 15.5988 46.4612L16.3966 46.7361L16.2189 47.5685C15.1431 52.6104 15.0297 56.9975 15.8956 60.2563C16.597 62.9081 17.9071 64.8038 19.7939 65.892C20.9188 66.5353 22.21 66.8637 23.6336 66.8637H23.6355C27.4393 66.8637 32.3169 64.3781 37.3742 59.863L38 59.3037L38.6257 59.863C43.6811 64.3723 48.5606 66.858 52.3644 66.858C53.7899 66.858 55.083 66.5296 56.2098 65.8824C58.089 64.7981 59.3992 62.9042 60.1006 60.2544C60.9664 56.9956 60.853 52.6104 59.7773 47.5685L59.5996 46.7361L60.3974 46.4612C68.9918 43.5174 73.9205 39.1227 73.9205 34.4091C73.9205 29.6937 68.9918 25.3009 60.3974 22.3571L59.5996 22.0821L59.7792 21.2498C60.8549 16.2079 60.9683 11.8208 60.1024 8.56196C59.3992 5.91023 58.089 4.01833 56.206 2.93396C55.0811 2.28678 53.7899 1.95842 52.3663 1.95842C48.5644 1.95842 43.6867 4.44405 38.6276 8.95714L38.0018 9.51651L37.3761 8.95714C32.3169 4.44214 27.4374 1.9546 23.6317 1.9546ZM23.6336 64.9546C22.5428 64.9546 21.5654 64.7121 20.7316 64.231C19.3024 63.4063 18.289 61.902 17.72 59.76C16.9486 56.8448 17.0488 52.8681 18.0073 48.2634L18.2115 47.284L19.17 47.536C22.1779 48.3283 25.441 48.924 28.878 49.302L29.2883 49.3478L29.5359 49.6819C31.5645 52.452 33.7273 55.014 35.9582 57.2972L36.6652 58.0208L35.9071 58.689C31.3149 62.7286 26.9553 64.9546 23.6336 64.9546ZM19.6672 49.6303C18.7825 53.5249 18.756 56.841 19.5481 59.2655C20.0737 60.8711 20.6919 62.0108 21.6674 62.5721C24.1138 63.9829 28.8761 62.1196 33.905 57.9024C31.9521 55.8406 30.0577 53.5745 28.2636 51.1519C25.2519 50.8044 22.3651 50.2928 19.6672 49.6303ZM52.3663 64.9489C49.0446 64.9489 44.685 62.7248 40.0947 58.687L39.3366 58.0208L40.0436 57.2972C42.284 55.0025 44.443 52.4424 46.4602 49.6838L46.706 49.3478L47.1181 49.302C50.557 48.9221 53.8258 48.3283 56.8299 47.536L57.7903 47.284L57.9926 48.2634C58.9511 52.872 59.0513 56.8467 58.2781 59.76C57.709 61.9 56.6975 63.4025 55.274 64.2234C54.4346 64.7064 53.4571 64.9489 52.3663 64.9489ZM42.0949 57.9024C47.1238 62.1158 51.871 63.981 54.3362 62.5663C55.3061 62.0089 55.9224 60.8691 56.448 59.2674C57.2458 56.841 57.2137 53.5249 56.3308 49.6322C53.633 50.2947 50.7461 50.8044 47.7306 51.1538C45.9478 53.5669 44.0554 55.8311 42.0949 57.9024ZM38 56.736L37.3288 56.0487C35.8674 54.5558 34.4438 52.9464 33.0977 51.2607L31.7744 49.6055L33.8767 49.7067C36.582 49.8365 39.4179 49.8365 42.1214 49.7067L44.2218 49.6055L42.9022 51.2588C41.5599 52.9369 40.1382 54.5481 38.673 56.0449L38 56.736ZM35.9166 51.6941C36.5953 52.4901 37.2929 53.2633 38 54.0079C38.707 53.2595 39.4009 52.4882 40.0815 51.6941C38.7032 51.7303 37.2948 51.7303 35.9166 51.6941ZM38 47.9026C35.5725 47.9026 33.1393 47.7976 30.7648 47.5895L30.3262 47.5513L30.0729 47.1867C28.7098 45.2261 27.4223 43.1986 26.2445 41.1654C25.0742 39.1399 23.9588 37.0055 22.9303 34.8177L22.7375 34.4091L22.9303 34.0006C23.9588 31.8128 25.0742 29.6765 26.2445 27.6529C27.4355 25.5949 28.689 23.6266 30.0766 21.6297L30.33 21.267L30.7686 21.2288C35.5101 20.8126 40.4898 20.8126 45.2294 21.2288L45.668 21.267L45.9214 21.6316C47.3128 23.6361 48.5663 25.6063 49.7498 27.6529C50.9314 29.6956 52.0468 31.83 53.0639 34.0025L53.2548 34.4091L53.0639 34.8177C52.0468 36.9883 50.9314 39.1246 49.7498 41.1673C48.5663 43.2139 47.3128 45.1841 45.9214 47.1886L45.668 47.5532L45.2294 47.5914C42.8587 47.7976 40.4274 47.9026 38 47.9026ZM31.366 45.7262C35.7313 46.0832 40.2705 46.0832 44.6282 45.7262C45.8892 43.8916 47.033 42.0799 48.1201 40.2032C49.1996 38.3381 50.2224 36.3908 51.1639 34.4091C50.2224 32.4275 49.1996 30.4802 48.1201 28.6151C47.0349 26.7384 45.8892 24.9267 44.6282 23.0921C40.2686 22.7351 35.7218 22.7351 31.3698 23.0921C30.1126 24.921 28.9669 26.7308 27.8741 28.617C26.806 30.465 25.7813 32.4122 24.8303 34.4091C25.7813 36.4041 26.8041 38.3514 27.8741 40.2032C28.9536 42.0646 30.1277 43.9202 31.366 45.7262ZM48.1655 47.2936L49.313 45.5029C50.0182 44.4032 50.7121 43.2845 51.3832 42.1295C52.0751 40.9344 52.7198 39.7336 53.3399 38.5347L54.2965 36.6867L55.0565 38.6263C55.8222 40.5793 56.4953 42.5591 57.0549 44.5082L57.3252 45.4513L56.3856 45.6976C54.4629 46.2016 52.4022 46.6292 50.2545 46.9671L48.1655 47.2936ZM54.03 41.2819C53.701 41.8851 53.3626 42.4903 53.0147 43.0936C52.6971 43.6434 52.372 44.1837 52.0449 44.7182C53.0431 44.5273 54.0149 44.3192 54.9563 44.0901C54.6728 43.1547 54.3627 42.2173 54.03 41.2819ZM27.8307 47.2936L25.7416 46.9652C23.5939 46.6273 21.5313 46.1997 19.6143 45.6957L18.6747 45.4494L18.945 44.5082C19.5009 42.5667 20.172 40.5889 20.9415 38.6282L21.7015 36.6867L22.6581 38.5385C23.2763 39.7374 23.921 40.9363 24.6129 42.1314C25.2822 43.2864 25.9779 44.4051 26.6831 45.5048L27.8307 47.2936ZM21.0398 44.0863C21.9775 44.3135 22.9492 44.5235 23.9456 44.7144C23.6185 44.1818 23.2952 43.6415 22.9776 43.0917C22.6278 42.4903 22.2932 41.8871 21.9643 41.2819C21.6315 42.2211 21.3234 43.1566 21.0398 44.0863ZM59.1364 44.913L58.8603 43.9489C58.0172 40.9936 56.8885 37.9161 55.5103 34.8005L55.3363 34.4091L55.5103 34.0197C56.8885 30.9079 58.0172 27.8285 58.8622 24.8713L59.1383 23.9072L60.0798 24.2337C67.5626 26.832 72.03 30.6368 72.03 34.4091C72.03 38.1834 67.5626 41.9863 60.0779 44.5865L59.1364 44.913ZM57.4065 34.4091C58.5976 37.1334 59.5977 39.831 60.3917 42.4445C66.3451 40.2109 70.1394 37.1048 70.1394 34.4091C70.1394 31.7135 66.3451 28.6074 60.3917 26.3738C59.5977 28.9911 58.5957 31.6868 57.4065 34.4091ZM16.8579 44.911L15.9183 44.5846C8.43734 41.9844 3.96995 38.1815 3.96995 34.4091C3.96995 30.6368 8.43734 26.8339 15.9183 24.2337L16.8579 23.9072L17.1339 24.8713C17.9828 27.8381 19.1095 30.9174 20.484 34.0197L20.6598 34.4091L20.4858 34.7986C19.1095 37.9009 17.9846 40.9802 17.1358 43.947L16.8579 44.911ZM15.6063 26.3738C9.65296 28.6093 5.86051 31.7154 5.86051 34.4091C5.86051 37.1029 9.65296 40.209 15.6063 42.4445C16.4022 39.8195 17.4024 37.1239 18.5896 34.4091C17.4024 31.6944 16.4022 28.9988 15.6063 26.3738ZM21.6996 32.1354L20.9396 30.1939C20.172 28.2332 19.499 26.2554 18.9432 24.3139L18.6728 23.3727L19.6124 23.1264C21.5332 22.6224 23.5939 22.1948 25.7416 21.8569L27.8325 21.5285L26.6793 23.3211C25.9741 24.4189 25.2803 25.5376 24.6091 26.6926C23.9172 27.8858 23.2725 29.0866 22.6543 30.2855L21.6996 32.1354ZM21.0398 24.732C21.3215 25.6617 21.6315 26.5991 21.9643 27.5364C22.2932 26.9331 22.6297 26.3299 22.9776 25.7266C23.2952 25.1787 23.6185 24.6384 23.9456 24.1039C22.9492 24.2929 21.9775 24.5048 21.0398 24.732ZM54.2965 32.1354L53.3399 30.2855C52.7198 29.0847 52.0751 27.8858 51.3832 26.6907C50.7139 25.5357 50.0182 24.417 49.313 23.3173L48.1655 21.5266L50.2526 21.855C52.4022 22.1929 54.4667 22.6205 56.3837 23.1264L57.3233 23.3727L57.053 24.3158C56.4934 26.2631 55.8222 28.2428 55.0547 30.1977L54.2965 32.1354ZM52.0468 24.102C52.3738 24.6365 52.699 25.1768 53.0166 25.7266C53.3664 26.3299 53.7029 26.9331 54.0319 27.5383C54.3646 26.601 54.6747 25.6636 54.9582 24.732C54.0186 24.5029 53.045 24.2929 52.0468 24.102ZM57.7846 21.5361L56.8261 21.2841C53.8258 20.4919 50.5589 19.8981 47.1143 19.5182L46.7022 19.4724L46.4564 19.1364C44.4335 16.3701 42.2745 13.8081 40.0399 11.5249L39.3328 10.8013L40.0909 10.1331C46.1955 4.76669 51.8936 2.65142 55.2664 4.59487C56.6938 5.41769 57.7052 6.92014 58.2743 9.05833C59.0456 11.9735 58.9454 15.9501 57.9869 20.5568L57.7846 21.5361ZM47.7306 17.6645C50.7499 18.0139 53.6348 18.5255 56.3308 19.188C57.3082 15.5473 57.4462 12.3248 56.4499 9.55087C55.8789 7.96633 55.308 6.81133 54.3344 6.25005C51.8804 4.83733 47.1276 6.7006 42.0968 10.9159C44.0497 12.9796 45.9422 15.2457 47.7306 17.6645ZM18.2134 21.5361L18.0092 20.5568C17.0488 15.9501 16.9486 11.9754 17.7219 9.06024C18.2909 6.91633 19.3024 5.41196 20.7297 4.59105C24.1119 2.64378 29.8063 4.76478 35.9109 10.1351L36.6709 10.8032L35.9619 11.5268C33.7235 13.812 31.5645 16.374 29.5416 19.1383L29.2958 19.4743L28.8837 19.5201C25.4467 19.9001 22.1779 20.4938 19.1719 21.2861L18.2134 21.5361ZM23.6317 5.77278C22.8736 5.77278 22.2119 5.93123 21.6637 6.24814C20.6919 6.80751 20.2004 7.99687 19.5481 9.55278C18.5272 11.9869 18.6993 15.3011 19.6672 19.188C22.367 18.5255 25.2519 18.0139 28.2674 17.6645C30.0558 15.2457 31.9502 12.9815 33.9069 10.9178C29.9953 7.63796 26.2842 5.77278 23.6317 5.77278ZM31.7781 19.2109L33.0996 17.5576C34.4419 15.8776 35.8655 14.2682 37.3288 12.7715L38 12.0842L38.6711 12.7715C40.1401 14.274 41.5618 15.8833 42.8984 17.5557L44.2161 19.209L42.1176 19.1097C39.4141 18.9818 36.5783 18.9818 33.8767 19.1097L31.7781 19.2109ZM38 17.0975C38.6995 17.0975 39.3933 17.1071 40.0815 17.1242C39.4065 16.332 38.7089 15.5607 38.0018 14.8123C37.2948 15.5588 36.5991 16.3301 35.9203 17.1242C36.6085 17.1071 37.3004 17.0975 38 17.0975Z" fill="#022026"/>
</svg>
