<svg width="71" height="70" viewBox="0 0 71 70" fill="none" xmlns="http://www.w3.org/2000/svg">
<path d="M40.136 39.446C40.1613 42.4931 40.724 44.3953 41.4833 45.4985C42.0592 46.3352 42.8089 46.823 43.9667 46.9324C43.8213 46.8704 43.6773 46.8005 43.5354 46.722C42.6994 46.2602 42.0743 45.5809 41.648 44.7877C40.8822 43.3631 40.686 41.3431 40.686 39.238V37.776C40.686 35.6528 40.8973 33.6002 41.7187 32.1608C42.2954 31.1504 43.1144 30.4506 44.0769 30.0556C42.8361 30.1479 42.0516 30.6476 41.4566 31.5136C40.7055 32.6069 40.1381 34.5868 40.138 37.851L40.136 39.446ZM40.136 39.446V37.9513C40.1373 37.918 40.138 37.8846 40.138 37.8511L40.136 39.446ZM50.5944 32.2236C50.047 31.3186 49.3127 30.6272 48.4354 30.1935C48.5648 30.1476 48.6898 30.0968 48.8096 30.0417C49.7343 29.6168 51.076 28.554 51.076 26.7066V21.564H51.642V46.564H50.799C50.5165 46.2451 50.1815 45.9993 49.8394 45.824C50.0828 45.578 50.3072 45.3033 50.5105 45.0008C50.9343 44.37 51.076 43.6879 51.076 43.1135V33.9781C51.076 33.4436 50.9537 32.8178 50.5944 32.2236ZM46.5766 48.8272C46.5768 48.8288 46.577 48.8303 46.5771 48.8318L46.5766 48.8272ZM22.4274 28.9271L24.755 28.0148L22.4274 28.9271C23.5891 31.8907 27.783 31.8907 28.9446 28.9271L31.2193 23.124H32.1455L27.3601 33.2263C26.9095 34.1775 26.911 35.281 27.364 36.231L29.6206 35.155L27.364 36.231L32.2902 46.562H31.2958L28.946 40.5809C27.7819 37.618 23.5875 37.6216 22.4286 40.5866L20.093 46.562H19.1018L24.0277 36.2317C24.4814 35.2803 24.4821 34.1752 24.0298 33.2232L19.2316 23.124H20.1527L22.4274 28.9271ZM6.5 2.5C4.567 2.5 3 4.06701 3 6V64C3 65.933 4.567 67.5 6.5 67.5H64.5C66.433 67.5 68 65.933 68 64V6C68 4.067 66.433 2.5 64.5 2.5H6.5Z" stroke="black" stroke-width="5"/>
</svg>
