<svg width="70" height="77" viewBox="0 0 70 77" fill="none" xmlns="http://www.w3.org/2000/svg">
<mask id="path-1-outside-1_111_89" maskUnits="userSpaceOnUse" x="-0.315918" y="-0.0482178" width="70" height="77" fill="black">
<rect fill="white" x="-0.315918" y="-0.0482178" width="70" height="77"/>
<path fill-rule="evenodd" clip-rule="evenodd" d="M26.3593 67.782V71.9518H47.9191C47.8645 70.6512 47.9569 69.7495 47.9191 68.2486C47.7035 59.1955 47.6604 58.8689 46.5393 56.7223L45.375 54.4824L46.5393 54.2024C53.2228 52.6157 55.9393 51.3091 59.0008 48.2759C62.6229 44.636 64.4339 39.1294 64.477 31.6163C64.5201 26.0632 63.8302 23.1699 61.6743 19.95C60.4238 18.0834 60.3807 17.9901 60.8981 15.2835C61.2862 13.0902 61.2862 11.8302 60.855 9.54364C60.2082 5.95041 59.777 5.01711 58.6559 5.01711C57.2761 5.01711 53.0934 6.74372 50.42 8.47034L47.9191 10.1036L45.0301 9.45031C41.2355 8.56367 32.9997 8.56367 29.2483 9.45031C26.3161 10.1036 26.273 10.1036 24.7207 8.93699C22.8666 7.63036 16.873 5.01711 15.6225 5.01711C14.5014 5.01711 14.0271 5.99708 13.4234 9.59031C13.0784 11.6902 13.0784 13.2302 13.4234 15.2368C13.8546 17.8967 13.8546 17.9901 12.3454 20.6966C11.5261 22.1899 10.6206 24.1499 10.405 25.0832C9.06829 29.983 9.71509 38.0095 11.828 43.0027C14.4151 49.0692 18.5977 52.0558 27.696 54.2024L28.8171 54.4824L27.8253 56.6756C27.2648 57.8422 26.7905 59.2422 26.7905 59.7089C26.7905 60.9222 24.3758 61.9488 21.6161 61.9488C18.4684 61.9488 16.3986 60.6422 14.2858 57.2823C12.4316 54.2957 10.0169 52.2891 8.24902 52.1491C4.97193 51.8691 4.84257 52.6624 7.81783 55.369C9.28389 56.7223 10.3619 58.2622 11.3105 60.4555C13.8977 66.382 15.8812 67.7353 22.1335 67.7353L26.3593 67.782Z"/>
</mask>
<path fill-rule="evenodd" clip-rule="evenodd" d="M26.3593 67.782V71.9518H47.9191C47.8645 70.6512 47.9569 69.7495 47.9191 68.2486C47.7035 59.1955 47.6604 58.8689 46.5393 56.7223L45.375 54.4824L46.5393 54.2024C53.2228 52.6157 55.9393 51.3091 59.0008 48.2759C62.6229 44.636 64.4339 39.1294 64.477 31.6163C64.5201 26.0632 63.8302 23.1699 61.6743 19.95C60.4238 18.0834 60.3807 17.9901 60.8981 15.2835C61.2862 13.0902 61.2862 11.8302 60.855 9.54364C60.2082 5.95041 59.777 5.01711 58.6559 5.01711C57.2761 5.01711 53.0934 6.74372 50.42 8.47034L47.9191 10.1036L45.0301 9.45031C41.2355 8.56367 32.9997 8.56367 29.2483 9.45031C26.3161 10.1036 26.273 10.1036 24.7207 8.93699C22.8666 7.63036 16.873 5.01711 15.6225 5.01711C14.5014 5.01711 14.0271 5.99708 13.4234 9.59031C13.0784 11.6902 13.0784 13.2302 13.4234 15.2368C13.8546 17.8967 13.8546 17.9901 12.3454 20.6966C11.5261 22.1899 10.6206 24.1499 10.405 25.0832C9.06829 29.983 9.71509 38.0095 11.828 43.0027C14.4151 49.0692 18.5977 52.0558 27.696 54.2024L28.8171 54.4824L27.8253 56.6756C27.2648 57.8422 26.7905 59.2422 26.7905 59.7089C26.7905 60.9222 24.3758 61.9488 21.6161 61.9488C18.4684 61.9488 16.3986 60.6422 14.2858 57.2823C12.4316 54.2957 10.0169 52.2891 8.24902 52.1491C4.97193 51.8691 4.84257 52.6624 7.81783 55.369C9.28389 56.7223 10.3619 58.2622 11.3105 60.4555C13.8977 66.382 15.8812 67.7353 22.1335 67.7353L26.3593 67.782Z" fill="#F2BF5E"/>
<path d="M26.3593 71.9518V76.9518C23.5978 76.9518 21.3593 74.7132 21.3593 71.9518H26.3593ZM26.3593 67.782L26.4145 62.7823L31.3593 62.8369V67.782H26.3593ZM22.1335 67.7353V62.7353H22.1612L22.1888 62.7356L22.1335 67.7353ZM11.3105 60.4555L6.72812 62.4559L6.72474 62.4482L6.72138 62.4404L11.3105 60.4555ZM7.81783 55.369L11.1824 51.6704L11.1959 51.6827L11.2092 51.695L7.81783 55.369ZM8.24902 52.1491L7.85432 57.1335L7.83885 57.1323L7.82338 57.1309L8.24902 52.1491ZM14.2858 57.2823L10.0531 59.944L10.0454 59.9317L10.0378 59.9195L14.2858 57.2823ZM27.8253 56.6756L32.3812 58.7357L32.3573 58.7887L32.3321 58.8411L27.8253 56.6756ZM28.8171 54.4824L30.0286 49.6314L35.8416 51.0831L33.373 56.5424L28.8171 54.4824ZM27.696 54.2024L28.8441 49.336L28.8759 49.3435L28.9075 49.3514L27.696 54.2024ZM11.828 43.0027L7.22872 44.9641L7.22324 44.9512L11.828 43.0027ZM10.405 25.0832L15.2767 26.2086L15.2546 26.3043L15.2287 26.3991L10.405 25.0832ZM12.3454 20.6966L7.96179 18.2916L7.97004 18.2766L7.97839 18.2616L12.3454 20.6966ZM13.4234 15.2368L18.3511 14.3897L18.3551 14.4132L18.3589 14.4367L13.4234 15.2368ZM13.4234 9.59031L8.48951 8.77982L8.49098 8.77085L8.49248 8.7619L13.4234 9.59031ZM24.7207 8.93699L27.6009 4.84989L27.6635 4.89397L27.7247 4.93996L24.7207 8.93699ZM29.2483 9.45031L30.3983 14.3162L30.3671 14.3236L30.3357 14.3306L29.2483 9.45031ZM45.0301 9.45031L43.9272 14.3272L43.9098 14.3232L43.8924 14.3192L45.0301 9.45031ZM47.9191 10.1036L50.6531 14.29L48.8808 15.4474L46.8162 14.9805L47.9191 10.1036ZM50.42 8.47034L47.6861 4.284L47.6967 4.27705L47.7074 4.27016L50.42 8.47034ZM60.855 9.54364L55.9416 10.4702L55.9377 10.4498L55.9341 10.4294L60.855 9.54364ZM60.8981 15.2835L65.8216 16.1546L65.8156 16.1885L65.8092 16.2223L60.8981 15.2835ZM61.6743 19.95L65.8283 17.1672L65.8289 17.1681L61.6743 19.95ZM64.477 31.6163L59.4771 31.5876L59.4772 31.5775L64.477 31.6163ZM59.0008 48.2759L62.545 51.8027L62.5325 51.8153L62.5199 51.8278L59.0008 48.2759ZM46.5393 54.2024L45.3701 49.341L45.3773 49.3393L45.3844 49.3376L46.5393 54.2024ZM45.375 54.4824L40.9385 56.7883L37.9902 51.1158L44.2059 49.621L45.375 54.4824ZM46.5393 56.7223L42.1073 59.037L42.1028 59.0282L46.5393 56.7223ZM47.9191 68.2486L42.9207 68.3746L42.9205 68.3677L47.9191 68.2486ZM47.9191 71.9518L52.9147 71.7422C52.9718 73.1035 52.4709 74.4291 51.528 75.4124C50.585 76.3958 49.2815 76.9518 47.9191 76.9518V71.9518ZM21.3593 71.9518V67.782H31.3593V71.9518H21.3593ZM26.3041 72.7817L22.0783 72.735L22.1888 62.7356L26.4145 62.7823L26.3041 72.7817ZM22.1335 72.7353C18.827 72.7353 15.4643 72.4265 12.5527 70.4638C9.68333 68.5295 8.07146 65.5331 6.72812 62.4559L15.8929 58.4551C17.1368 61.3044 17.8102 61.9479 18.1424 62.1719C18.4326 62.3675 19.1877 62.7353 22.1335 62.7353V72.7353ZM6.72138 62.4404C6.01357 60.8039 5.31677 59.8649 4.42643 59.043L11.2092 51.695C13.251 53.5797 14.7102 55.7206 15.8997 58.4706L6.72138 62.4404ZM4.45323 59.0676C3.65253 58.3392 2.85747 57.5605 2.24187 56.7792C1.93428 56.3889 1.54858 55.8453 1.24204 55.1804C0.954213 54.5561 0.534894 53.3934 0.736866 51.9474C1.26275 48.1824 4.73726 47.3699 5.48912 47.2336C6.6036 47.0316 7.78088 47.0909 8.67467 47.1672L7.82338 57.1309C7.07862 57.0673 7.01082 57.1207 7.27234 57.0733C7.40348 57.0496 8.03159 56.932 8.74769 56.4327C9.62416 55.8215 10.4419 54.7545 10.6407 53.3308C10.8077 52.1356 10.451 51.2704 10.3234 50.9935C10.177 50.6761 10.049 50.5299 10.0965 50.5901C10.191 50.7101 10.4955 51.0455 11.1824 51.6704L4.45323 59.0676ZM8.64372 47.1647C11.0448 47.3548 13.0695 48.6525 14.4617 49.8287C15.977 51.1088 17.3738 52.7767 18.5337 54.645L10.0378 59.9195C9.34358 58.8012 8.606 57.9726 8.00837 57.4677C7.71237 57.2176 7.50991 57.0971 7.42367 57.0535C7.32107 57.0017 7.47532 57.1035 7.85432 57.1335L8.64372 47.1647ZM18.5184 54.6206C19.3631 55.9637 19.9326 56.4573 20.2445 56.6554C20.4646 56.7953 20.7925 56.9488 21.6161 56.9488V66.9488C19.292 66.9488 17.0111 66.449 14.8813 65.0956C12.8431 63.8004 11.3213 61.9607 10.0531 59.944L18.5184 54.6206ZM21.6161 56.9488C22.4432 56.9488 23.0441 56.7847 23.2613 56.6912C23.3807 56.6398 23.1695 56.7033 22.8519 57.0179C22.5309 57.3358 21.7905 58.2466 21.7905 59.7089H31.7905C31.7905 61.7777 30.7482 63.2719 29.8882 64.1235C29.0316 64.9718 28.0442 65.5195 27.215 65.8764C25.5349 66.5996 23.5487 66.9488 21.6161 66.9488V56.9488ZM21.7905 59.7089C21.7905 58.9528 21.9493 58.2858 22.0197 58.0011C22.1168 57.6089 22.2391 57.2115 22.3644 56.8434C22.6151 56.1072 22.9487 55.2801 23.3186 54.5102L32.3321 58.8411C32.1415 59.2378 31.9576 59.694 31.8309 60.0661C31.7676 60.2521 31.7363 60.3652 31.7269 60.4031C31.7224 60.4215 31.7322 60.3854 31.7452 60.3066C31.7542 60.2522 31.7905 60.029 31.7905 59.7089H21.7905ZM23.2695 54.6155L24.2612 52.4223L33.373 56.5424L32.3812 58.7357L23.2695 54.6155ZM27.6056 59.3334L26.4845 59.0534L28.9075 49.3514L30.0286 49.6314L27.6056 59.3334ZM26.5478 59.0688C21.7246 57.9308 17.6933 56.4613 14.4324 54.1542C11.0455 51.7579 8.82041 48.6963 7.22874 44.9641L16.4272 41.0413C17.4227 43.3756 18.5824 44.8406 20.2082 45.9908C21.96 47.2302 24.5691 48.3273 28.8441 49.336L26.5478 59.0688ZM7.22324 44.9512C5.90095 41.8263 5.12656 38.0138 4.83872 34.4055C4.55244 30.8167 4.70996 26.9612 5.58128 23.7672L15.2287 26.3991C14.7633 28.1051 14.5759 30.7127 14.8071 33.6103C15.0367 36.4885 15.6421 39.1859 16.4327 41.0542L7.22324 44.9512ZM5.5333 23.9578C5.75973 22.9776 6.22031 21.8707 6.58652 21.0541C6.99869 20.1349 7.48983 19.1519 7.96179 18.2916L16.729 23.1017C16.3817 23.7347 16.0104 24.4783 15.7111 25.1457C15.562 25.4782 15.444 25.7623 15.3604 25.9835C15.2655 26.2343 15.2573 26.2926 15.2767 26.2086L5.5333 23.9578ZM7.97839 18.2616C8.37376 17.5526 8.57396 17.1838 8.69803 16.9236C8.80423 16.7009 8.74663 16.775 8.70365 16.9964C8.65585 17.2427 8.67882 17.3901 8.66797 17.2657C8.65034 17.0634 8.60503 16.76 8.48781 16.0369L18.3589 14.4367C18.526 15.4674 18.8614 17.1456 18.5204 18.902C18.1992 20.5568 17.3213 22.0396 16.7124 23.1317L7.97839 18.2616ZM8.49566 16.0839C8.05223 13.5045 8.05847 11.4037 8.48951 8.77982L18.3573 10.4008C18.0984 11.9768 18.1046 12.9559 18.3511 14.3897L8.49566 16.0839ZM8.49248 8.7619C8.78106 7.04421 9.13674 5.21449 9.82378 3.78738C10.2105 2.984 10.87 1.93725 12.0244 1.12955C13.2588 0.265907 14.5648 0.0171051 15.6225 0.0171051V10.0171C16.1197 10.0171 16.9459 9.8908 17.7572 9.32319C18.4885 8.81152 18.7814 8.23435 18.834 8.12511C18.8825 8.02435 18.8297 8.10528 18.7193 8.55403C18.6154 8.97637 18.4964 9.5725 18.3543 10.4187L8.49248 8.7619ZM15.6225 0.0171051C16.4456 0.0171051 17.1884 0.198471 17.5441 0.290138C18.0079 0.40966 18.4897 0.56282 18.9465 0.720924C19.8667 1.03948 20.913 1.45763 21.9316 1.89854C23.8359 2.72294 26.2162 3.87409 27.6009 4.84989L21.8405 13.0241C21.3711 12.6933 19.8275 11.8845 17.9589 11.0756C17.091 10.6999 16.2885 10.383 15.6753 10.1708C15.3653 10.0635 15.1592 10.0023 15.0486 9.97375C14.83 9.9174 15.112 10.0171 15.6225 10.0171V0.0171051ZM27.7247 4.93996C27.9263 5.0915 28.0437 5.17885 28.1352 5.24379C28.2239 5.30676 28.2193 5.29896 28.159 5.26436C28.0885 5.22395 27.935 5.14242 27.715 5.06537C27.4854 4.98498 27.25 4.93262 27.0251 4.90736C26.8124 4.88348 26.662 4.88985 26.6079 4.89341C26.5608 4.89651 26.5779 4.89823 26.6979 4.87818C26.8169 4.8583 26.9864 4.82572 27.2409 4.7719C27.4946 4.71824 27.7889 4.65285 28.1609 4.56998L30.3357 14.3306C29.6509 14.4832 28.9491 14.6406 28.3464 14.7414C27.743 14.8422 26.8788 14.9538 25.909 14.8449C23.7294 14.6001 22.2152 13.3086 21.7168 12.934L27.7247 4.93996ZM28.0982 4.58437C30.5435 4.00642 34.0008 3.78532 37.123 3.78532C40.2489 3.78532 43.7095 4.00705 46.1677 4.58146L43.8924 14.3192C42.5562 14.0069 40.0015 13.7853 37.123 13.7853C34.2408 13.7853 31.7044 14.0075 30.3983 14.3162L28.0982 4.58437ZM46.1329 4.57345L49.0219 5.22677L46.8162 14.9805L43.9272 14.3272L46.1329 4.57345ZM45.1851 5.91728L47.6861 4.284L53.154 12.6567L50.6531 14.29L45.1851 5.91728ZM47.7074 4.27016C49.3505 3.20895 51.3417 2.21425 53.0982 1.48158C53.9861 1.11127 54.8881 0.776764 55.7228 0.525726C56.4206 0.315887 57.5335 0.0171051 58.6559 0.0171051V10.0171C59.0883 10.0171 59.161 9.93415 58.6029 10.102C58.1818 10.2287 57.6124 10.4337 56.9479 10.7109C55.5998 11.2732 54.163 12.0051 53.1327 12.6705L47.7074 4.27016ZM58.6559 0.0171051C59.6696 0.0171051 60.9733 0.242729 62.221 1.10361C63.393 1.91221 64.0546 2.96728 64.4378 3.76284C65.1109 5.15996 65.4726 6.97293 65.7759 8.65786L55.9341 10.4294C55.7797 9.5716 55.6548 8.96855 55.5468 8.53853C55.4317 8.08025 55.3795 8.00076 55.4288 8.10299C55.4832 8.21607 55.7864 8.81324 56.542 9.33455C57.3733 9.90814 58.2027 10.0171 58.6559 10.0171V0.0171051ZM65.7684 8.61709C66.3109 11.4939 66.3156 13.3629 65.8216 16.1546L55.9746 14.4123C56.2568 12.8175 56.2615 12.1666 55.9416 10.4702L65.7684 8.61709ZM65.8092 16.2223C65.745 16.5582 65.6962 16.8185 65.6584 17.0371C65.6204 17.2564 65.6009 17.3914 65.5911 17.4755C65.5707 17.6485 65.6127 17.4437 65.5508 17.0836C65.5193 16.9007 65.4713 16.7355 65.4199 16.5993C65.3721 16.4728 65.3331 16.4033 65.3375 16.4113C65.3449 16.4246 65.3782 16.4833 65.4669 16.6214C65.5567 16.7611 65.6674 16.9271 65.8283 17.1672L57.5202 22.7328C57.0919 22.0934 56.017 20.647 55.6957 18.7799C55.4045 17.0881 55.793 15.3595 55.987 14.3446L65.8092 16.2223ZM65.8289 17.1681C68.7399 21.5156 69.5245 25.5216 69.4769 31.6551L59.4772 31.5775C59.5158 26.6048 58.9206 24.8242 57.5196 22.7319L65.8289 17.1681ZM69.4769 31.645C69.4298 39.8662 67.4454 46.8782 62.545 51.8027L55.4566 44.749C57.8004 42.3937 59.4381 38.3927 59.4771 31.5876L69.4769 31.645ZM62.5199 51.8278C60.6693 53.6614 58.7747 55.1061 56.2793 56.2953C53.8967 57.4307 51.1348 58.2504 47.6941 59.0672L45.3844 49.3376C48.6272 48.5677 50.5654 47.9408 51.9773 47.2679C53.2764 46.6489 54.2709 45.9236 55.4817 44.724L62.5199 51.8278ZM47.7084 59.0638L46.5442 59.3437L44.2059 49.621L45.3701 49.341L47.7084 59.0638ZM49.8115 52.1764L50.9758 54.4163L42.1028 59.0282L40.9385 56.7883L49.8115 52.1764ZM50.9712 54.4076C51.6923 55.7883 52.2578 57.006 52.5331 59.2996C52.7471 61.0825 52.8131 63.7382 52.9177 68.1296L42.9205 68.3677C42.8095 63.706 42.7461 61.6718 42.6044 60.4915C42.5456 60.002 42.4919 59.8467 42.4757 59.8003C42.4439 59.7091 42.3889 59.5762 42.1073 59.037L50.9712 54.4076ZM52.9175 68.1227C52.9397 69.0021 52.9231 69.7103 52.9118 70.2756C52.9004 70.8462 52.8945 71.2609 52.9147 71.7422L42.9235 72.1613C42.8891 71.3421 42.9022 70.6557 42.9138 70.0751C42.9256 69.4891 42.9363 68.9961 42.9207 68.3746L52.9175 68.1227ZM26.3593 66.9518H47.9191V76.9518H26.3593V66.9518Z" fill="#022026" mask="url(#path-1-outside-1_111_89)"/>
</svg>
