<svg width="77" height="83" viewBox="0 0 77 83" fill="none" xmlns="http://www.w3.org/2000/svg">
<mask id="path-1-inside-1_111_91" fill="white">
<path fill-rule="evenodd" clip-rule="evenodd" d="M74.1987 36.2959L42.997 2.52848C41.6738 1.08949 39.931 0.369995 38.1883 0.369995C36.4455 0.369995 34.7028 1.08949 33.3796 2.52848L27.2089 9.20651L24.8723 11.7352L2.17783 36.2959C-0.481478 39.1668 -0.481478 43.8331 2.17783 46.7041L33.3796 80.4715C34.7028 81.9104 36.4455 82.6299 38.1883 82.6299C39.931 82.6299 41.6738 81.9104 42.997 80.4715L74.1987 46.7041C76.858 43.8331 76.858 39.1668 74.1987 36.2959ZM42.8614 18.5599C40.6862 16.2059 37.3814 15.8566 34.8448 17.4702L30.3467 12.6024L28.024 15.1461L32.5146 20.0059C31.0236 22.7442 31.3399 26.3207 33.5151 28.6748C34.38 29.6108 35.4321 30.2046 36.5359 30.5119V52.481C33.6894 53.2773 31.5787 56.0505 31.5787 59.3826C31.5787 63.3363 34.5349 66.5356 38.1883 66.5356C41.8416 66.5356 44.7978 63.3363 44.7978 59.3826C44.7978 56.0505 42.6871 53.2773 39.8406 52.481V30.5119C40.428 30.3513 40.9896 30.0998 41.5253 29.7575L49.032 37.8815C47.541 40.6268 47.8638 44.2033 50.039 46.5574C52.6208 49.3515 56.8034 49.3515 59.3853 46.5574C61.9671 43.7632 61.9671 39.2367 59.3853 36.4425C57.2101 34.0885 53.9053 33.7392 51.3686 35.3528L43.8619 27.2288C45.3529 24.4905 45.0366 20.914 42.8614 18.5599Z"/>
</mask>
<path fill-rule="evenodd" clip-rule="evenodd" d="M74.1987 36.2959L42.997 2.52848C41.6738 1.08949 39.931 0.369995 38.1883 0.369995C36.4455 0.369995 34.7028 1.08949 33.3796 2.52848L27.2089 9.20651L24.8723 11.7352L2.17783 36.2959C-0.481478 39.1668 -0.481478 43.8331 2.17783 46.7041L33.3796 80.4715C34.7028 81.9104 36.4455 82.6299 38.1883 82.6299C39.931 82.6299 41.6738 81.9104 42.997 80.4715L74.1987 46.7041C76.858 43.8331 76.858 39.1668 74.1987 36.2959ZM42.8614 18.5599C40.6862 16.2059 37.3814 15.8566 34.8448 17.4702L30.3467 12.6024L28.024 15.1461L32.5146 20.0059C31.0236 22.7442 31.3399 26.3207 33.5151 28.6748C34.38 29.6108 35.4321 30.2046 36.5359 30.5119V52.481C33.6894 53.2773 31.5787 56.0505 31.5787 59.3826C31.5787 63.3363 34.5349 66.5356 38.1883 66.5356C41.8416 66.5356 44.7978 63.3363 44.7978 59.3826C44.7978 56.0505 42.6871 53.2773 39.8406 52.481V30.5119C40.428 30.3513 40.9896 30.0998 41.5253 29.7575L49.032 37.8815C47.541 40.6268 47.8638 44.2033 50.039 46.5574C52.6208 49.3515 56.8034 49.3515 59.3853 46.5574C61.9671 43.7632 61.9671 39.2367 59.3853 36.4425C57.2101 34.0885 53.9053 33.7392 51.3686 35.3528L43.8619 27.2288C45.3529 24.4905 45.0366 20.914 42.8614 18.5599Z" fill="#F2BF5E"/>
<path d="M74.1987 36.2959L71.2608 39.0105L71.2641 39.014L74.1987 36.2959ZM42.997 2.52848L40.0525 5.23597L40.0591 5.2431L42.997 2.52848ZM33.3796 2.52848L36.3174 5.2431L36.324 5.23596L33.3796 2.52848ZM27.2089 9.20651L24.2711 6.4919V6.4919L27.2089 9.20651ZM34.8448 17.4702L31.9069 20.1848L34.1736 22.6379L36.9917 20.8452L34.8448 17.4702ZM43.8619 27.2288L40.3489 25.316L38.9767 27.836L40.924 29.9434L43.8619 27.2288ZM51.3686 35.3528L48.4308 38.0674L50.6975 40.5205L53.5155 38.7278L51.3686 35.3528ZM49.032 37.8815L52.5471 39.7906L53.915 37.272L51.9699 35.1669L49.032 37.8815ZM41.5253 29.7575L44.4631 27.0429L42.1919 24.5849L39.3717 26.3868L41.5253 29.7575ZM39.8406 30.5119L38.7853 26.6537L35.8406 27.4591V30.5119H39.8406ZM39.8406 52.481H35.8406V55.5155L38.763 56.3331L39.8406 52.481ZM36.5359 52.481L37.6135 56.3331L40.5359 55.5155V52.481H36.5359ZM36.5359 30.5119H40.5359V27.4736L37.6089 26.6586L36.5359 30.5119ZM32.5146 20.0059L36.0276 21.9188L37.3998 19.3988L35.4525 17.2913L32.5146 20.0059ZM24.8723 11.7352L27.8102 14.4498V14.4498L24.8723 11.7352ZM2.17783 36.2959L5.11238 39.014L5.11567 39.0105L2.17783 36.2959ZM2.17783 46.7041L5.11567 43.9895L5.11237 43.9859L2.17783 46.7041ZM33.3796 80.4715L36.324 77.764L36.3174 77.7568L33.3796 80.4715ZM42.997 80.4715L40.0591 77.7568L40.0526 77.764L42.997 80.4715ZM74.1987 46.7041L71.2641 43.9859L71.2608 43.9895L74.1987 46.7041ZM30.3467 12.6024L33.2846 9.88774C32.5246 9.06529 31.4547 8.59906 30.3349 8.60237C29.2151 8.60568 28.148 9.07823 27.3929 9.90515L30.3467 12.6024ZM28.024 15.1461L25.0702 12.4489C23.6692 13.9832 23.6761 16.3347 25.0862 17.8607L28.024 15.1461ZM77.1365 33.5812L45.9348 -0.186135L40.0591 5.2431L71.2608 39.0105L77.1365 33.5812ZM45.9414 -0.179004C43.8618 -2.4406 41.0516 -3.63 38.1883 -3.63V4.37C38.8104 4.37 39.4858 4.61958 40.0526 5.23596L45.9414 -0.179004ZM38.1883 -3.63C35.3249 -3.63 32.5148 -2.4406 30.4351 -0.179004L36.324 5.23596C36.8907 4.61958 37.5661 4.37 38.1883 4.37V-3.63ZM30.4417 -0.186135L24.2711 6.4919L30.1467 11.9211L36.3174 5.2431L30.4417 -0.186135ZM36.9917 20.8452C37.9127 20.2594 39.0737 20.3547 39.9236 21.2746L45.7992 15.8453C42.2987 12.057 36.8502 11.4538 32.6978 14.0952L36.9917 20.8452ZM39.9236 21.2746C40.862 22.2902 41.0722 23.9876 40.3489 25.316L47.3749 29.1417C49.6336 24.9935 49.2112 19.5379 45.7992 15.8453L39.9236 21.2746ZM40.924 29.9434L48.4308 38.0674L54.3065 32.6382L46.7997 24.5142L40.924 29.9434ZM53.5155 38.7278C54.4365 38.142 55.5975 38.2373 56.4475 39.1572L62.3231 33.7279C58.8226 29.9396 53.3741 29.3364 49.2217 31.9778L53.5155 38.7278ZM56.4475 39.1572C57.6131 40.4186 57.6131 42.5813 56.4475 43.8428L62.3231 49.272C66.3212 44.9452 66.3212 38.0548 62.3231 33.7279L56.4475 39.1572ZM56.4475 43.8428C55.4492 44.9231 53.975 44.9231 52.9768 43.8428L47.1011 49.272C51.2666 53.78 58.1576 53.78 62.3231 49.272L56.4475 43.8428ZM52.9768 43.8428C52.0353 42.8239 51.8229 41.1239 52.5471 39.7906L45.517 35.9724C43.2591 40.1297 43.6922 45.5828 47.1011 49.272L52.9768 43.8428ZM51.9699 35.1669L44.4631 27.0429L38.5875 32.4721L46.0942 40.5962L51.9699 35.1669ZM39.3717 26.3868C39.1604 26.5218 38.9673 26.6039 38.7853 26.6537L40.896 34.3702C41.8887 34.0987 42.8187 33.6778 43.6789 33.1283L39.3717 26.3868ZM35.8406 30.5119V52.481H43.8406V30.5119H35.8406ZM38.763 56.3331C39.7666 56.6139 40.7978 57.7222 40.7978 59.3826H48.7978C48.7978 54.3789 45.6077 49.9408 40.9183 48.6289L38.763 56.3331ZM40.7978 59.3826C40.7978 61.4307 39.3407 62.5356 38.1883 62.5356V70.5356C44.3425 70.5356 48.7978 65.2419 48.7978 59.3826H40.7978ZM38.1883 62.5356C37.0358 62.5356 35.5787 61.4307 35.5787 59.3826H27.5787C27.5787 65.2419 32.034 70.5356 38.1883 70.5356V62.5356ZM35.5787 59.3826C35.5787 57.7222 36.6099 56.6139 37.6135 56.3331L35.4582 48.6289C30.7688 49.9408 27.5787 54.3789 27.5787 59.3826H35.5787ZM40.5359 52.481V30.5119H32.5359V52.481H40.5359ZM37.6089 26.6586C37.1654 26.5351 36.7766 26.3104 36.4529 25.9602L30.5773 31.3894C31.9835 32.9112 33.6989 33.8741 35.4628 34.3653L37.6089 26.6586ZM36.4529 25.9602C35.5145 24.9446 35.3043 23.2472 36.0276 21.9188L29.0017 18.0931C26.743 22.2412 27.1653 27.6969 30.5773 31.3894L36.4529 25.9602ZM21.9345 9.02061L-0.76 33.5812L5.11567 39.0105L27.8102 14.4498L21.9345 9.02061ZM-0.75671 33.5777C-4.83663 37.9824 -4.83663 45.0176 -0.756709 49.4223L5.11237 43.9859C3.87368 42.6486 3.87367 40.3513 5.11238 39.014L-0.75671 33.5777ZM-0.76 49.4187L30.4417 83.1861L36.3174 77.7568L5.11567 43.9895L-0.76 49.4187ZM30.4351 83.1789C32.5148 85.4405 35.3249 86.6299 38.1883 86.6299V78.6299C37.5661 78.6299 36.8907 78.3804 36.324 77.764L30.4351 83.1789ZM38.1883 86.6299C41.0516 86.6299 43.8618 85.4405 45.9414 83.1789L40.0526 77.764C39.4858 78.3804 38.8104 78.6299 38.1883 78.6299V86.6299ZM45.9348 83.1861L77.1365 49.4187L71.2608 43.9895L40.0591 77.7568L45.9348 83.1861ZM77.1332 49.4223C81.2131 45.0176 81.2131 37.9824 77.1332 33.5777L71.2641 39.014C72.5028 40.3513 72.5028 42.6486 71.2641 43.9859L77.1332 49.4223ZM24.2711 6.4919L21.9345 9.02061L27.8102 14.4498L30.1468 11.9211L24.2711 6.4919ZM27.4089 15.317L31.9069 20.1848L37.7826 14.7556L33.2846 9.88774L27.4089 15.317ZM35.4525 17.2913L30.9619 12.4314L25.0862 17.8607L29.5768 22.7205L35.4525 17.2913ZM27.3929 9.90515L25.0702 12.4489L30.9778 17.8433L33.3006 15.2996L27.3929 9.90515Z" fill="#022026" mask="url(#path-1-inside-1_111_91)"/>
</svg>
