<svg width="58" height="71" viewBox="0 0 58 71" fill="none" xmlns="http://www.w3.org/2000/svg">
<path d="M0.273071 0.611694L5.35281 63.0435L29.0583 70.3884L52.7638 63.0435C54.457 42.2338 56.1502 21.4213 57.8435 0.611694H0.273071ZM3.97044 4.28415H54.1461L49.5955 60.2073L29.0583 66.5682L8.52104 60.2073L3.97044 4.28415ZM16.4449 15.3015L14.8178 37.3363H36.8142L36.1183 46.5174L29.0583 47.655L22.0829 46.5174L21.776 42.8449H15.2411L15.9025 52.0261L29.0411 55.6985L42.1968 52.0261L43.8742 29.9913H22.4374L22.9798 22.6464H37.1343L37.5245 26.3189H43.7882L42.6043 15.3015H16.4449Z" fill="#022026"/>
</svg>
