<svg width="63" height="67" viewBox="0 0 63 67" fill="none" xmlns="http://www.w3.org/2000/svg">
<path d="M4.18535 0C2.03189 0 0.252686 1.9255 0.252686 4.25605V62.744C0.252686 65.0745 2.03189 67 4.18535 67H58.2293C60.3828 67 62.162 65.0807 62.162 62.744V4.25605C62.162 1.9255 60.3886 0 58.2293 0H4.18535ZM4.18535 3.19048H58.2293C58.7763 3.19048 59.2139 3.66406 59.2139 4.25605V62.744C59.2139 63.3359 58.7763 63.8095 58.2293 63.8095H4.18535C3.63835 63.8095 3.20075 63.3359 3.20075 62.744V4.25605C3.20075 3.66406 3.63835 3.19048 4.18535 3.19048ZM28.2593 30.3095V50.3684C28.2593 53.4467 27.1825 54.2381 25.3112 54.2381C23.3535 54.2381 21.9946 52.917 21.0964 51.2034L16.467 54.2381C17.8086 57.3102 21.0964 60.619 25.6567 60.619C30.7006 60.619 34.1554 57.7152 34.1554 51.3405V30.3095H28.2593ZM46.6156 30.3095C41.5947 30.3095 38.376 33.7866 38.376 38.3543C38.376 43.3082 41.0764 45.6512 45.1358 47.5206L46.5407 48.1749C49.103 49.3901 50.3697 50.1316 50.3697 52.2191C50.3697 53.9577 49.1491 55.2164 46.8171 55.2164C44.0418 55.2164 42.729 53.1788 41.5256 51.0476L37.1035 54.2381C38.756 57.7713 41.7213 60.619 46.9438 60.619C52.2871 60.619 56.2659 57.6155 56.2659 52.1381C56.2659 47.0533 53.5712 44.7913 48.7863 42.5729L47.3814 41.9249C44.9688 40.7907 43.9209 40.0554 43.9209 38.2296C43.9209 36.7528 44.9688 35.6187 46.6156 35.6187C48.2336 35.6187 49.27 36.3602 50.2316 38.2296L54.6133 35.1887C52.765 31.6555 50.1912 30.3095 46.6156 30.3095Z" fill="#022026"/>
</svg>
