<svg width="89" height="83" viewBox="0 0 89 83" fill="none" xmlns="http://www.w3.org/2000/svg">
<path d="M44.5001 77.6827C64.9801 77.6827 81.6797 61.5291 81.6797 41.4844C81.6797 21.4397 64.9801 5.28613 44.5001 5.28613C24.0201 5.28613 7.32056 21.4397 7.32056 41.4844C7.32056 61.5291 24.0201 77.6827 44.5001 77.6827Z" fill="#022026" stroke="#022026" stroke-width="4"/>
<path d="M42.2427 7.80236L42.2401 7.80261C42.2064 7.80558 42.1536 7.81048 42.087 7.81666C41.8697 7.83682 41.5049 7.87067 41.1712 7.89645C31.3211 8.76045 22.0927 13.9288 16.2502 21.8679L16.25 21.8681C12.9961 26.2832 10.9171 31.2879 10.1315 36.587L10.1314 36.5879C9.85412 38.4351 9.82056 38.964 9.82056 41.4944C9.82056 44.0248 9.85412 44.5537 10.1314 46.4009L10.1315 46.4015C12.0142 59.0478 21.2761 69.6865 33.8516 73.6294C33.8516 73.6294 33.8516 73.6294 33.8517 73.6294L33.7021 74.1065C35.9855 74.8219 38.3927 75.3099 41.13 75.6041L42.2427 7.80236ZM42.2427 7.80236C42.4933 7.77889 43.735 7.78247 45.0434 7.80281C46.3427 7.823 47.6143 7.85805 47.9211 7.88871C50.5744 8.17982 52.9346 8.6618 55.1479 9.35922L55.1486 9.35943C67.7241 13.3023 76.986 23.941 78.8688 36.5873L78.8689 36.5879C79.1461 38.4351 79.1797 38.964 79.1797 41.4944C79.1797 44.0248 79.1461 44.5537 78.8689 46.4009L78.8688 46.4014C77.9206 52.7609 75.0962 58.7281 70.7101 63.6242L70.7097 63.6247C68.6835 65.8923 66.1312 68.0719 63.7126 69.6194L58.4147 61.8184L58.4146 61.8182C55.3472 57.3055 49.1023 48.113 44.5356 41.3809C42.252 38.0144 40.1557 34.9336 38.6173 32.6809C37.8482 31.5546 37.2182 30.6349 36.7739 29.9898C36.5519 29.6675 36.3757 29.4129 36.2515 29.2353C36.1896 29.1467 36.1397 29.0759 36.1032 29.025C36.0851 28.9998 36.0691 28.9777 36.0559 28.96L36.0548 28.9586C36.0486 28.9502 36.0252 28.9186 35.999 28.8907C35.8949 28.7799 35.7782 28.669 35.6309 28.5768C35.4796 28.4821 35.3172 28.42 35.1315 28.3789C34.7882 28.3029 34.3202 28.2919 33.6333 28.2919C33.0478 28.2919 32.6952 28.2947 32.4547 28.3175C32.1751 28.344 32.0206 28.4002 31.8372 28.4872L31.8278 28.4917L31.8185 28.4965C31.6089 28.6069 31.3169 28.8264 31.1526 29.0337L30.9422 29.291L30.8296 29.4288L30.8293 29.6068L30.8086 43.018V43.0182L30.7949 56.4227L30.7948 56.5368L30.8441 56.6396L30.9886 56.9405L30.9931 56.9498L30.9979 56.959C31.142 57.2297 31.3545 57.4634 31.638 57.6379L31.6389 57.6385L31.9553 57.8323L32.0755 57.906H32.2165H33.4064C34.3994 57.906 34.729 57.8974 35.0761 57.7287L35.0762 57.7288L35.0844 57.7246C35.2557 57.6374 35.4118 57.5391 35.5548 57.3962C35.6954 57.2558 35.8012 57.0943 35.9017 56.9102L35.9019 56.9098C35.9827 56.7614 36.0137 56.6119 36.034 56.3699C36.054 56.1315 36.0672 55.7444 36.0771 55.081C36.0969 53.7474 36.1038 51.2377 36.1141 46.4229C36.121 43.6722 36.1313 41.1709 36.1433 39.3584C36.1469 38.821 36.1506 38.3446 36.1544 37.9402M42.2427 7.80236L36.1544 37.9402M36.1544 37.9402C36.4841 38.4084 36.8972 38.9972 37.3779 39.6836C38.6636 41.5199 40.4308 44.0532 42.3701 46.8408C42.3702 46.8408 42.3702 46.8409 42.3703 46.8409L49.4198 56.9827L49.426 56.9916L49.4326 57.0003L55.0585 64.3878C55.0585 64.3878 55.0586 64.3878 55.0586 64.3878C56.6063 66.4205 58.0252 68.2779 59.0642 69.6323C59.5836 70.3095 60.0085 70.8614 60.3071 71.2468C60.3715 71.3298 60.4302 71.4054 60.4827 71.4729C60.4352 71.4969 60.3823 71.5235 60.3233 71.5528L36.1544 37.9402ZM56.9119 53.3457L57.8243 54.7054L57.8271 53.068L57.8477 41.0473C57.8546 36.8588 57.8546 33.8339 57.846 31.8342C57.8417 30.8346 57.8352 30.0892 57.8264 29.582C57.8219 29.3288 57.8169 29.1319 57.811 28.9911C57.8081 28.9212 57.8048 28.861 57.8009 28.8128L57.8006 28.8085C57.7984 28.7808 57.7925 28.7046 57.7716 28.6348C57.6327 28.172 57.2664 27.7612 56.8244 27.5437C56.4654 27.3559 56.1325 27.3559 55.1813 27.3559H55.1744C54.6449 27.3559 54.3183 27.3586 54.0897 27.383C53.82 27.4117 53.6659 27.4728 53.4866 27.5621L53.4865 27.562L53.4765 27.5673C53.0237 27.8056 52.696 28.2102 52.5488 28.7111L52.5487 28.711L52.5456 28.7225C52.5293 28.7831 52.5244 28.8506 52.5226 28.8754L52.5223 28.879C52.5193 28.92 52.5166 28.9709 52.5141 29.0294C52.5092 29.1473 52.5047 29.3101 52.5005 29.5151C52.492 29.9259 52.4847 30.5163 52.4787 31.2766C52.4666 32.7978 52.4597 35.0055 52.4597 37.8307V46.5688V46.7214L52.5449 46.848L54.7317 50.0965L54.7321 50.0971L56.9119 53.3457Z" fill="#F2BF5E" stroke="#022026"/>
</svg>
