<svg width="70" height="71" viewBox="0 0 70 71" fill="none" xmlns="http://www.w3.org/2000/svg">
<path d="M31.9829 35.2898L31.9818 35.2909C30.9145 36.3349 29.3177 37 26.856 37H24.028C22.095 37 20.528 38.567 20.528 40.5V47H19.786V23.562H26.974C29.2252 23.562 30.7743 24.2386 31.8974 25.4101C33.0554 26.618 33.712 28.2297 33.712 30.476C33.712 32.7357 33.0597 34.2378 31.9829 35.2898ZM6 3C4.067 3 2.5 4.56701 2.5 6.5V64.5C2.5 66.433 4.067 68 6 68H64C65.933 68 67.5 66.433 67.5 64.5V6.5C67.5 4.567 65.933 3 64 3H6ZM43.7438 37.2268C43.8899 37.352 44.0502 37.4717 44.2187 37.586C43.4099 37.1312 42.9147 36.7343 42.6466 36.4229C42.2319 35.9412 41.972 35.3145 41.972 34.362C41.972 33.5379 42.1645 32.8743 42.5578 32.3033C42.3346 32.8886 42.244 33.5004 42.244 34.088C42.244 35.4122 42.8747 36.4824 43.7438 37.2268ZM48.6312 39.682C50.0119 40.2917 50.8248 40.8657 51.2488 41.3306C51.6865 41.8106 51.992 42.4975 51.992 43.62C51.992 44.5477 51.7436 45.2375 51.2346 45.8097C51.5165 45.1591 51.62 44.4712 51.62 43.834C51.62 42.4627 50.9306 41.3923 50.0976 40.6592C49.7228 40.3294 49.2189 40.0038 48.6312 39.682ZM50.7073 31.6635C50.7096 31.6655 50.7119 31.6674 50.7141 31.6694C50.8708 31.8038 51.0121 31.9455 51.138 32.096H50.9272C50.8621 31.9496 50.789 31.8051 50.7073 31.6635Z" stroke="black" stroke-width="5"/>
</svg>
