<svg width="91" height="65" viewBox="0 0 91 65" fill="none" xmlns="http://www.w3.org/2000/svg">
<path d="M44.3406 2.65408C43.2632 2.65408 28.2691 2.65409 24.3186 22.5735C24.3186 22.5735 29.0772 13.9255 37.3374 14.5086C47.124 15.5774 48.6503 31.3186 66.6073 32.4846C76.753 32.9704 85.7315 27.8205 88.7842 12.468C88.7842 12.468 82.2299 23.5518 72.982 19.7556C65.1707 16.5491 62.567 2.07108 44.3406 2.65408Z" fill="#F2BF5E" stroke="#022026" stroke-width="4" stroke-linejoin="round"/>
<path d="M22.9717 32.5016C21.8943 32.5016 6.90024 32.5016 2.94971 52.421C2.94971 52.421 7.70831 43.7731 15.9685 44.3561C25.7551 45.4249 27.2814 61.1661 45.2384 62.3321C55.3841 62.818 64.3626 57.6681 67.4153 42.3156C67.4153 42.3156 60.861 53.3995 51.6131 49.6031C43.8018 46.3966 41.1981 31.9186 22.9717 32.5016Z" fill="#F2BF5E" stroke="#022026" stroke-width="4" stroke-linejoin="round"/>
</svg>
