<svg width="71" height="71" viewBox="0 0 71 71" fill="none" xmlns="http://www.w3.org/2000/svg">
<g clip-path="url(#clip0_111_23)">
<path fill-rule="evenodd" clip-rule="evenodd" d="M62.3255 0.823975C67.1132 0.823975 71 4.6562 71 9.37628V62.2717C71 66.9917 67.113 70.824 62.3255 70.824H8.67448C3.88697 70.824 0 66.9917 0 62.2717V9.37628C0 4.6562 3.88683 0.823975 8.67448 0.823975H62.3255V0.823975ZM22.2514 58.694V27.8343H11.8455V58.694H22.2514ZM59.7676 58.694V40.9973C59.7676 31.5182 54.6342 27.1086 47.789 27.1086C42.2693 27.1086 39.7967 30.1015 38.4124 32.2035V27.8343H28.0091C28.1471 30.7301 28.0091 58.694 28.0091 58.694H38.4122V41.4598C38.4122 40.5372 38.4796 39.6152 38.7553 38.9558C39.5061 37.1135 41.2191 35.205 44.0934 35.205C47.8562 35.205 49.3639 38.0361 49.3639 42.1828V58.694H59.7676V58.694ZM17.1188 12.9539C13.5585 12.9539 11.2324 15.2616 11.2324 18.2862C11.2324 21.2473 13.4878 23.6185 16.9811 23.6185H17.0482C20.6765 23.6185 22.9351 21.2473 22.9351 18.2862C22.8678 15.2658 20.6829 12.9605 17.1188 12.9539V12.9539Z" fill="black"/>
</g>
<defs>
<clipPath id="clip0_111_23">
<rect width="71" height="70" fill="white" transform="translate(0 0.823975)"/>
</clipPath>
</defs>
</svg>
