<svg width="71" height="71" viewBox="0 0 71 71" fill="none" xmlns="http://www.w3.org/2000/svg">
<g clip-path="url(#clip0_111_27)">
<path fill-rule="evenodd" clip-rule="evenodd" d="M71 9.37628C71 4.6562 67.1132 0.823975 62.3255 0.823975L8.67448 0.823975C3.88683 0.823975 0 4.6562 0 9.37628V35.824V62.2717C0 66.9917 3.88697 70.824 8.67448 70.824H62.3255C67.113 70.824 71 66.9917 71 62.2717V9.37628ZM29.4573 55.5597V58.3687H45.1749C45.1542 57.9119 45.1625 57.5282 45.1714 57.1222C45.1796 56.7495 45.1881 56.358 45.1749 55.8741C45.0177 49.7756 44.9863 49.5556 44.169 48.1096L43.3202 46.6007L44.169 46.4121C49.0414 45.3433 51.0219 44.4631 53.2538 42.4198C55.8943 39.9678 57.2146 36.2584 57.2461 31.1973C57.2775 27.4565 56.7745 25.5075 55.2028 23.3385C54.2911 22.0811 54.2597 22.0182 54.6369 20.195C54.9199 18.7175 54.9198 17.8688 54.6055 16.3284C54.134 13.9079 53.8196 13.2792 53.0023 13.2792C51.9964 13.2792 48.9471 14.4423 46.9982 15.6054L45.1749 16.7057L43.0687 16.2656C40.3024 15.6683 34.2983 15.6683 31.5634 16.2656C29.4258 16.7057 29.3944 16.7057 28.2627 15.9198C26.911 15.0396 22.5415 13.2792 21.6299 13.2792C20.8125 13.2792 20.4668 13.9394 20.0267 16.3599C19.7752 17.7745 19.7752 18.8118 20.0267 20.1635C20.341 21.9554 20.341 22.0182 19.2408 23.8415C18.6435 24.8474 17.9834 26.1677 17.8262 26.7964C16.8517 30.0971 17.3232 35.504 18.8636 38.8676C20.7497 42.9542 23.7989 44.966 30.4317 46.4121L31.2491 46.6007L30.5261 48.0781C30.1174 48.864 29.7716 49.8071 29.7716 50.1214C29.7716 50.9387 28.0112 51.6303 25.9994 51.6303C23.7046 51.6303 22.1957 50.7501 20.6554 48.4868C19.3037 46.4749 17.5433 45.1232 16.2544 45.0289C13.8653 44.8403 13.771 45.3747 15.9401 47.1979C17.0089 48.1096 17.7948 49.1469 18.4863 50.6244C20.3725 54.6167 21.8185 55.5283 26.3766 55.5283L29.4573 55.5597Z" fill="black"/>
</g>
<defs>
<clipPath id="clip0_111_27">
<rect width="71" height="70" fill="white" transform="translate(0 0.823975)"/>
</clipPath>
</defs>
</svg>
